<svg xmlns="http://www.w3.org/2000/svg" viewBox="0 0 1331 1008" role="img" aria-label="Island outline logo">
  <title>Island outline logo</title>
  <path d="M 1273 137 L 1263 128 L 1252 124 L 1225 122 L 1209 125 L 1191 125 L 1171 116 L 1156 112 L 1134 113 L 1108 126 L 1099 126 L 1076 119 L 1062 119 L 1049 122 L 1039 127 L 1025 139 L 1019 151 L 1017 169 L 1003 167 L 981 174 L 973 174 L 966 171 L 959 164 L 953 152 L 943 144 L 933 141 L 919 141 L 899 145 L 863 161 L 842 178 L 836 188 L 834 196 L 834 206 L 839 225 L 831 236 L 809 257 L 772 275 L 762 285 L 752 303 L 745 310 L 734 312 L 732 310 L 733 302 L 754 279 L 762 262 L 760 247 L 746 226 L 746 205 L 739 184 L 756 178 L 761 173 L 765 164 L 764 144 L 744 112 L 745 100 L 750 86 L 750 75 L 740 40 L 733 34 L 719 32 L 699 41 L 687 24 L 678 20 L 669 20 L 660 24 L 653 31 L 648 52 L 634 53 L 618 60 L 596 59 L 585 62 L 578 66 L 558 86 L 540 90 L 530 96 L 507 121 L 431 163 L 411 179 L 405 190 L 404 203 L 408 212 L 414 218 L 432 225 L 452 225 L 480 217 L 489 217 L 493 222 L 489 236 L 477 252 L 450 277 L 385 321 L 359 342 L 339 366 L 315 403 L 288 431 L 280 448 L 277 469 L 268 499 L 262 512 L 243 539 L 236 553 L 218 607 L 210 622 L 196 634 L 182 650 L 165 693 L 142 719 L 87 764 L 40 816 L 35 828 L 37 844 L 44 852 L 59 859 L 57 870 L 40 891 L 32 911 L 33 927 L 43 939 L 40 949 L 40 961 L 43 967 L 56 975 L 71 975 L 98 968 L 126 972 L 149 972 L 181 963 L 191 957 L 202 946 L 213 929 L 224 918 L 270 898 L 294 883 L 310 867 L 322 847 L 325 847 L 333 858 L 339 860 L 349 860 L 360 854 L 367 840 L 368 813 L 374 806 L 382 803 L 393 803 L 385 821 L 385 832 L 388 839 L 395 846 L 408 851 L 425 851 L 437 846 L 444 836 L 445 823 L 448 820 L 463 816 L 473 806 L 476 806 L 484 816 L 493 821 L 503 822 L 516 817 L 524 807 L 534 786 L 535 777 L 530 767 L 531 764 L 545 765 L 559 760 L 566 753 L 571 736 L 574 733 L 618 718 L 657 698 L 667 686 L 669 675 L 672 672 L 686 671 L 695 666 L 702 657 L 709 635 L 733 616 L 771 599 L 788 601 L 802 600 L 810 596 L 818 588 L 825 575 L 840 565 L 848 557 L 851 550 L 852 534 L 850 523 L 855 513 L 855 501 L 852 495 L 845 489 L 846 485 L 856 484 L 859 487 L 861 502 L 867 515 L 864 534 L 865 545 L 868 552 L 876 560 L 889 565 L 915 567 L 929 576 L 946 579 L 945 582 L 931 587 L 921 595 L 917 605 L 917 612 L 923 624 L 935 630 L 950 630 L 969 625 L 984 617 L 1000 601 L 1024 558 L 1047 536 L 1052 528 L 1056 515 L 1055 493 L 1052 485 L 1041 473 L 1041 470 L 1058 462 L 1068 451 L 1070 439 L 1063 425 L 1087 411 L 1090 412 L 1095 420 L 1102 423 L 1113 423 L 1130 414 L 1143 400 L 1156 377 L 1164 368 L 1189 357 L 1197 350 L 1201 341 L 1201 330 L 1196 319 L 1198 317 L 1217 314 L 1227 309 L 1237 299 L 1245 283 L 1246 254 L 1278 233 L 1294 217 L 1298 208 L 1298 196 L 1295 189 L 1283 180 L 1272 178 L 1277 162 L 1277 147 Z
      M 1256 149 L 1257 159 L 1247 181 L 1248 190 L 1250 194 L 1256 198 L 1275 198 L 1278 201 L 1277 206 L 1261 221 L 1229 243 L 1225 252 L 1226 275 L 1221 287 L 1207 297 L 1188 300 L 1178 306 L 1174 314 L 1174 321 L 1181 334 L 1181 338 L 1151 353 L 1142 362 L 1128 387 L 1116 400 L 1109 403 L 1104 391 L 1096 387 L 1091 387 L 1052 409 L 1043 417 L 1041 432 L 1050 441 L 1050 444 L 1024 457 L 1017 467 L 1018 478 L 1035 494 L 1037 501 L 1035 520 L 1031 526 L 1009 546 L 990 581 L 973 601 L 954 610 L 945 612 L 938 611 L 936 609 L 938 604 L 958 595 L 965 588 L 967 574 L 964 568 L 955 562 L 936 560 L 917 550 L 896 549 L 887 546 L 882 540 L 885 513 L 878 497 L 874 477 L 867 470 L 859 467 L 838 469 L 831 474 L 826 486 L 828 497 L 836 507 L 832 521 L 834 544 L 830 550 L 817 557 L 803 576 L 796 582 L 783 580 L 764 581 L 742 589 L 718 602 L 705 611 L 693 623 L 685 647 L 680 653 L 663 655 L 655 660 L 650 669 L 648 679 L 643 684 L 601 704 L 563 717 L 553 728 L 550 743 L 546 746 L 524 745 L 515 748 L 509 754 L 507 760 L 507 767 L 515 779 L 515 782 L 502 803 L 498 802 L 485 788 L 475 785 L 469 786 L 460 791 L 452 800 L 433 807 L 427 815 L 425 830 L 416 833 L 405 829 L 405 822 L 412 812 L 415 803 L 414 794 L 408 786 L 399 783 L 388 783 L 367 788 L 359 793 L 350 804 L 347 820 L 348 838 L 346 840 L 342 838 L 339 828 L 334 823 L 329 821 L 317 823 L 308 832 L 294 855 L 281 868 L 266 878 L 226 895 L 208 905 L 199 914 L 186 934 L 173 945 L 145 953 L 94 949 L 67 956 L 60 955 L 63 935 L 60 928 L 51 919 L 51 914 L 58 899 L 69 887 L 77 874 L 78 855 L 73 845 L 55 835 L 56 828 L 99 780 L 154 735 L 172 717 L 182 703 L 200 659 L 224 636 L 232 624 L 255 558 L 280 520 L 287 504 L 303 445 L 328 419 L 360 372 L 381 350 L 470 287 L 493 265 L 507 246 L 511 237 L 513 223 L 511 212 L 503 202 L 493 198 L 478 198 L 448 206 L 436 206 L 426 200 L 428 191 L 447 177 L 516 140 L 523 135 L 547 109 L 561 106 L 572 101 L 591 82 L 598 78 L 622 79 L 643 71 L 654 72 L 661 70 L 668 62 L 669 45 L 672 40 L 676 42 L 684 56 L 694 61 L 705 61 L 721 52 L 724 53 L 726 67 L 730 76 L 730 83 L 724 104 L 725 117 L 731 131 L 745 149 L 746 158 L 742 164 L 732 166 L 722 174 L 720 179 L 720 191 L 727 208 L 728 233 L 742 254 L 742 261 L 715 293 L 712 301 L 712 315 L 715 322 L 721 328 L 733 332 L 745 331 L 757 326 L 767 316 L 781 294 L 789 288 L 816 276 L 829 267 L 844 252 L 857 235 L 859 229 L 859 217 L 854 204 L 857 192 L 874 178 L 896 167 L 920 161 L 931 161 L 937 165 L 943 177 L 952 186 L 967 193 L 980 194 L 1002 187 L 1014 190 L 1029 189 L 1037 181 L 1038 160 L 1043 150 L 1052 143 L 1065 139 L 1079 140 L 1096 146 L 1112 146 L 1137 133 L 1153 132 L 1188 145 L 1203 146 L 1238 142 L 1252 145 Z" fill="#17324d" fill-rule="evenodd"/>
</svg>
