<svg xmlns="http://www.w3.org/2000/svg" viewBox="0 0 1536 1024" role="img" aria-label="Island outline logo">
  <title>Island outline logo</title>
  <path d="M 1345 108 L 1331 95 L 1307 84 L 1281 79 L 1247 79 L 1190 96 L 1123 95 L 1103 98 L 1079 108 L 1049 130 L 1028 138 L 1007 139 L 963 132 L 929 136 L 906 147 L 889 162 L 878 177 L 850 240 L 797 282 L 801 254 L 790 217 L 790 200 L 805 158 L 805 130 L 797 111 L 777 84 L 772 45 L 763 33 L 748 24 L 724 22 L 714 25 L 677 54 L 629 66 L 573 108 L 524 126 L 491 144 L 466 169 L 461 182 L 461 199 L 476 221 L 509 233 L 507 251 L 484 279 L 424 317 L 389 345 L 365 370 L 343 402 L 328 435 L 309 500 L 282 562 L 273 614 L 263 644 L 224 705 L 193 784 L 159 833 L 145 861 L 141 891 L 152 920 L 171 934 L 196 940 L 234 939 L 269 932 L 326 907 L 390 854 L 419 837 L 451 829 L 531 823 L 578 805 L 602 788 L 626 764 L 674 693 L 695 673 L 729 654 L 802 634 L 837 612 L 856 590 L 866 571 L 873 542 L 872 520 L 877 512 L 886 514 L 893 544 L 901 558 L 937 582 L 932 620 L 938 638 L 946 647 L 957 653 L 975 655 L 991 651 L 1008 641 L 1039 608 L 1068 560 L 1084 527 L 1102 468 L 1111 451 L 1124 438 L 1155 422 L 1172 408 L 1192 368 L 1205 352 L 1221 343 L 1261 332 L 1278 322 L 1297 297 L 1307 263 L 1316 255 L 1352 239 L 1368 221 L 1374 202 L 1373 187 L 1366 172 L 1351 159 L 1354 131 Z M 1317 128 L 1320 136 L 1317 170 L 1323 180 L 1339 193 L 1338 205 L 1328 214 L 1297 227 L 1281 241 L 1273 255 L 1266 284 L 1256 296 L 1243 303 L 1208 312 L 1187 323 L 1167 344 L 1147 385 L 1106 409 L 1087 427 L 1071 454 L 1055 507 L 1040 540 L 1012 587 L 986 615 L 974 621 L 967 619 L 971 593 L 969 570 L 956 553 L 928 537 L 913 493 L 900 482 L 888 478 L 863 481 L 847 494 L 842 503 L 835 556 L 826 573 L 810 590 L 784 604 L 716 622 L 680 641 L 644 675 L 595 747 L 564 773 L 520 790 L 442 795 L 405 805 L 370 826 L 311 876 L 268 896 L 232 904 L 198 905 L 183 900 L 177 894 L 176 879 L 181 864 L 223 801 L 249 732 L 298 650 L 314 576 L 342 510 L 359 451 L 375 415 L 396 387 L 424 360 L 510 302 L 527 284 L 539 263 L 544 245 L 542 222 L 526 203 L 495 191 L 506 175 L 536 158 L 593 136 L 638 100 L 687 87 L 724 58 L 737 56 L 743 63 L 746 98 L 772 140 L 770 158 L 756 200 L 757 223 L 767 254 L 760 293 L 765 306 L 775 315 L 799 318 L 816 310 L 876 262 L 893 233 L 907 195 L 923 177 L 935 170 L 962 166 L 1007 173 L 1037 171 L 1062 162 L 1097 137 L 1113 131 L 1190 130 L 1257 112 L 1295 116 Z" fill="currentColor" fill-rule="evenodd"/>
</svg>
